<?xml version="1.0" encoding="UTF-8"?>
<svg id="Layer_2" data-name="Layer 2" xmlns="http://www.w3.org/2000/svg" xmlns:xlink="http://www.w3.org/1999/xlink" viewBox="0 0 1006.99 760.04">
  <defs>
    <style>
      .cls-1 {
        fill: #febb94;
      }

      .cls-2, .cls-3, .cls-4, .cls-5, .cls-6, .cls-7, .cls-8, .cls-9, .cls-10, .cls-11, .cls-12, .cls-13, .cls-14, .cls-15, .cls-16, .cls-17, .cls-18 {
        fill: none;
      }

      .cls-2, .cls-3, .cls-4, .cls-8, .cls-10, .cls-11, .cls-12, .cls-13, .cls-14, .cls-15, .cls-17, .cls-18 {
        stroke-miterlimit: 10;
      }

      .cls-2, .cls-5, .cls-6, .cls-7, .cls-8, .cls-9, .cls-10, .cls-12, .cls-13, .cls-14, .cls-15, .cls-16, .cls-17, .cls-18 {
        stroke-linecap: round;
      }

      .cls-2, .cls-8 {
        stroke: #1c85e8;
        stroke-width: 3.82px;
      }

      .cls-19 {
        fill: #e56441;
      }

      .cls-19, .cls-6 {
        stroke: #e56441;
      }

      .cls-20 {
        fill: #e7efff;
      }

      .cls-21, .cls-22 {
        fill: #93523e;
      }

      .cls-23 {
        fill: #465393;
      }

      .cls-24 {
        fill: #b2cdff;
      }

      .cls-25 {
        fill: #f4608a;
      }

      .cls-26 {
        fill: url(#linear-gradient-2);
      }

      .cls-27 {
        fill: #22fcc1;
      }

      .cls-28 {
        fill: #bc775c;
      }

      .cls-3, .cls-10, .cls-12, .cls-13, .cls-14, .cls-15, .cls-17, .cls-18 {
        stroke: #fff;
      }

      .cls-29 {
        fill: #5ca4e6;
      }

      .cls-4 {
        stroke: #5ca4e6;
      }

      .cls-30 {
        fill: url(#linear-gradient);
      }

      .cls-5 {
        stroke-width: 1.52px;
      }

      .cls-5, .cls-22 {
        stroke: #93523e;
      }

      .cls-31 {
        fill: #ff967c;
      }

      .cls-32 {
        fill: #2f405b;
      }

      .cls-6 {
        stroke-width: 1.67px;
      }

      .cls-33, .cls-34 {
        fill: #1c85e8;
      }

      .cls-35 {
        fill: #495a72;
      }

      .cls-7 {
        stroke-width: 2.89px;
      }

      .cls-7, .cls-9, .cls-16 {
        stroke-linejoin: round;
      }

      .cls-7, .cls-16 {
        stroke: #ff967c;
      }

      .cls-8, .cls-13, .cls-17, .cls-18, .cls-34, .cls-36, .cls-37 {
        isolation: isolate;
      }

      .cls-8, .cls-13, .cls-17, .cls-18, .cls-34, .cls-37 {
        opacity: .4;
      }

      .cls-9, .cls-11 {
        stroke: #22fcc1;
      }

      .cls-9, .cls-14 {
        stroke-width: 15px;
      }

      .cls-38 {
        fill: #1f2d49;
      }

      .cls-39, .cls-36, .cls-37 {
        fill: #fff;
      }

      .cls-40 {
        fill: #ffccb3;
      }

      .cls-10, .cls-17 {
        stroke-width: 4px;
      }

      .cls-11 {
        stroke-width: 3px;
      }

      .cls-12, .cls-18 {
        stroke-width: 7.43px;
      }

      .cls-41 {
        fill: #0d1b33;
      }

      .cls-13, .cls-15 {
        stroke-width: 16.35px;
      }

      .cls-42, .cls-36 {
        opacity: .6;
      }

      .cls-16 {
        stroke-width: 2.1px;
      }

      .cls-43 {
        fill: #080b09;
      }

      .cls-44 {
        fill: #493212;
      }

      .cls-45 {
        fill: #96bafd;
      }
    </style>
    <linearGradient id="linear-gradient" x1="456.16" y1="757.2" x2="530.61" y2="-306.77" gradientTransform="translate(0 792.13) scale(1 -1)" gradientUnits="userSpaceOnUse">
      <stop offset="0" stop-color="#fff"/>
      <stop offset="1" stop-color="#94b9ff"/>
    </linearGradient>
    <linearGradient id="linear-gradient-2" x1="475.74" y1="827.69" x2="534.99" y2="191.02" xlink:href="#linear-gradient"/>
  </defs>
  <g id="Layer_1-2" data-name="Layer 1">
    <path class="cls-12" d="M92,49.52h32.68"/>
    <path class="cls-27" d="M817.34,49.07h-101.95c-6.87,0-12.44,5.57-12.44,12.44v110.37c0,6.87,5.57,12.44,12.44,12.44h101.95c6.87,0,12.44-5.57,12.44-12.44V61.51c0-6.87-5.57-12.44-12.44-12.44Z"/>
    <path class="cls-12" d="M718.4,150.73h32.68"/>
    <path class="cls-18" d="M718.4,165.98h67.54"/>
    <path class="cls-10" d="M719.12,87.41h16.9c1.24,0,2.46.33,3.54.94,1.08.62,1.97,1.51,2.6,2.58l16.36,27.98c.64,1.1,1.57,2.01,2.68,2.63,1.11.62,2.37.93,3.65.89,1.27-.03,2.52-.41,3.59-1.09,1.08-.68,1.95-1.63,2.54-2.77l10.11-19.65c.59-1.15,1.49-2.12,2.58-2.8,1.1-.68,2.37-1.05,3.66-1.06l29.69-.32"/>
    <path class="cls-17" d="M719.12,117.51h8.31c1.88,0,3.68-.74,5.01-2.07l38.42-38.16c1.33-1.32,3.13-2.07,5.01-2.07h11.25c1.61,0,3.17.54,4.43,1.54,1.26,1,2.14,2.4,2.5,3.96l5.91,25.45c.36,1.57,1.24,2.96,2.5,3.96,1.26,1,2.82,1.54,4.42,1.54h10.15"/>
    <path class="cls-32" d="M962.63,722.45s-3.73,37.59-68.5,37.59h-75.94l100.74-78.32,43.7,40.73Z"/>
    <path class="cls-35" d="M811.94,286.82l178.33,39.51c1.59.34,3.1.97,4.46,1.85,4.93,3.25,13.74,12.77,12.05,38.79-2.26,34.69-44.15,355.48-44.15,355.48l-171.22-148.23,20.53-287.4Z"/>
    <path class="cls-32" d="M792.88,285.8l179.63,39.8s15.37,5.6,15.21,40.36c-.16,34.76-44.15,355.48-44.15,355.48l-171.22-148.23,20.53-287.4Z"/>
    <path class="cls-28" d="M795.8,304.12s3.16,45.79,4.55,53.04c2.44,12.71,58.28-13.99,54.18-25.31-2.12-5.87-11.79-61.82-11.79-61.82l-46.94,34.08Z"/>
    <path class="cls-22" d="M800.68,355.4l-4.78-46.88h28.3l-23.52,46.88Z"/>
    <path class="cls-28" d="M866.78,260.22c2.16-23.05-23.99-18.08-28.46-17.04-4.47,1.04-11.47-33.12-11.47-33.12,0,0-51.59-9.19-62.64-.02,0,0-6.93,43.06-8.05,70.63-1.12,27.58,6.62,39.92,16.72,40.87,13.77,2.47,30.06-.31,40.47-6.45,18.54-10.93,26.46-30.7,26.46-30.7.33-.15.51-.23.51-.23,0,0,24.43-2.16,26.46-23.94Z"/>
    <path class="cls-44" d="M762.74,279.8c4.45-2.82,15.69-2.57,20.25-1.68,8.7,1.7,11.37,2.83,12.35,4.85.98,2.02,1.17,4.25-2.46,2.82-3.64-1.43-11.24-4.04-18.01-3.85-3.15.32-6.26.89-9.32,1.7-3.53,1.06-6.82-1.3-2.81-3.85Z"/>
    <path class="cls-38" d="M759.59,251.66s2.93-25.8,3.3-32.94c.54-10.27,8.05-6.97,13.42.24,7.74,10.7,22.5,10.02,34.91,6.67,10.89-2.65,11.05-2.03,12.04,9.47,1,11.5,4.71,32.86,8.2,27.75,4.34-6.69,7.3-12.95,14.93-17.03,10.37-5.53,21.01,4.67,18.51,12.56-2.5,7.89-8.35,16.96-21.41,24.42l6.39,29.61c32.37-44.9,44.56-106.57.66-120.84-16.4-5.33-33.43-39.91-65.17-32.04-22.48,5.57-22.48,23.6-24.08,39.27-30.21,1.31-1.71,52.88-1.71,52.88Z"/>
    <path class="cls-43" d="M798.41,260.15c.62-3.27-.62-6.25-2.76-6.65-2.14-.4-4.38,1.92-4.99,5.18-.62,3.27.61,6.25,2.75,6.65,2.14.4,4.38-1.92,5-5.18Z"/>
    <path class="cls-43" d="M768.94,254.38c.62-3.27-.62-6.25-2.76-6.65-2.14-.4-4.38,1.92-5,5.18-.62,3.27.62,6.25,2.76,6.65,2.14.4,4.38-1.92,5-5.18Z"/>
    <path class="cls-5" d="M774.97,262.84s3.83,6.9-1.42,7.16c-5.02.07-7.86,3.1-2.68,7.23"/>
    <path class="cls-39" d="M771.91,282.98c3.12.14,9.36.41,13.51.66.25.01.49.09.69.23.21.14.37.33.48.56.1.23.14.48.11.73-.02.25-.12.48-.27.68-3.6,4.2-11.97,11.84-15.76-1.12-.09-.2-.13-.42-.11-.63.02-.22.09-.43.22-.6.13-.18.3-.32.5-.41.2-.09.42-.12.64-.1Z"/>
    <path class="cls-43" d="M808.31,249.16l-.27.6c-.33.9-1,1.64-1.86,2.06-.87.41-1.87.46-2.77.15l-15.44-5.89c-.76-.25-1.4-.78-1.78-1.48-.39-.7-.5-1.52-.31-2.3.09-.48.29-.94.57-1.34.29-.4.65-.74,1.07-.99.43-.25.9-.41,1.38-.46.49-.05.99,0,1.45.15l15.71,5.29c.43.12.83.33,1.18.61.35.28.63.63.84,1.02.21.39.34.82.38,1.27.04.44-.01.89-.15,1.32Z"/>
    <path class="cls-43" d="M756.42,236.4l16.5-1.58c.49-.04.98.02,1.44.19.46.16.89.42,1.24.76.35.34.63.75.82,1.2.18.45.27.94.25,1.43,0,.8-.29,1.57-.82,2.17-.54.59-1.28.96-2.07,1.04l-16.37,2.22c-.96.1-1.91-.17-2.66-.77-.75-.6-1.23-1.47-1.35-2.43l-.13-.64c-.04-.44.01-.89.15-1.32.14-.42.36-.82.66-1.15.29-.34.65-.61,1.05-.8.4-.19.84-.31,1.28-.33Z"/>
    <path class="cls-32" d="M44.36,722.45s3.73,37.59,68.51,37.59h75.93l-100.74-78.32-43.7,40.73Z"/>
    <path class="cls-35" d="M195.06,286.82l-178.33,39.51c-1.59.34-3.1.97-4.46,1.85-4.93,3.25-13.74,12.77-12.05,38.79,2.26,34.69,44.15,355.48,44.15,355.48l171.23-148.23-20.53-287.4Z"/>
    <path class="cls-32" d="M214.12,285.8l-179.64,39.8s-15.37,5.6-15.21,40.36c.16,34.76,44.15,355.48,44.15,355.48l171.23-148.23-20.53-287.4Z"/>
    <path class="cls-40" d="M291.86,451.28l17.43,24.39c2.49,3.48,5.69,6.4,9.39,8.55,3.7,2.16,7.81,3.5,12.07,3.95l114.09,12.04,1.73,28.57-139.22,8.45c-7.84.48-15.68-.98-22.83-4.24-7.15-3.26-13.39-8.23-18.17-14.46l-37.31-48.64,62.83-18.62Z"/>
    <path class="cls-31" d="M302.76,466.53s-35.87,9.47-46.35,39.05l-17.87-26.42,60.37-18.03,3.85,5.39Z"/>
    <path class="cls-27" d="M215.24,359.26s34.9,10.17,44.62,21.92c7.56,9.14,20.42,47.11,30.49,65.4,2.43,4.42,5.89,4.82,3.32,9.16-10.61,17.97-19.71,44.16-37.25,49.84-58.71-8.87-41.17-146.32-41.17-146.32Z"/>
    <path class="cls-23" d="M252.95,411.3s23.29,42.24,26.83,64.94c0,0-8.29,21.05-14.15,25.33-9.13,6.68-14.15,2.93-14.15,2.93l1.47-93.19Z"/>
    <path class="cls-38" d="M131.22,273.94c32.19,0,58.29-26.1,58.29-58.29s-26.1-58.29-58.29-58.29-58.29,26.1-58.29,58.29,26.1,58.29,58.29,58.29Z"/>
    <path class="cls-1" d="M180.6,184.58s-75.22-13.28-84.05,77.93c0,0,7.54,8.1,18.38,8.99,0,0,8.81-88.51,70.07-81.67l-4.4-5.26Z"/>
    <path class="cls-1" d="M164.66,188.05s-8.65-4.49-2.13-9.67c4.12-3.43,7.4-7.76,9.59-12.65,2.06,1.14,3.61,3.02,4.34,5.27.73,2.24.58,4.68-.42,6.81-3.34,8.24-5.43,8.71-5.43,8.71l-5.94,1.54Z"/>
    <path class="cls-1" d="M164.22,183.09s-2.38,9.45-8.92,4.3c-4.29-3.22-9.25-5.42-14.52-6.42.64-2.27,2.11-4.21,4.13-5.43,2.02-1.22,4.42-1.63,6.73-1.15,8.79,1.36,9.72,3.29,9.72,3.29l2.86,5.43Z"/>
    <path class="cls-40" d="M180.89,318.1l9.21,34.26s70.3,79.77,11.95,108.77c-10.26,5.1-59.27-34.09-68.48-42.77-9.2-8.69-5.39-60-5.39-60l21.13-73.3,31.57,33.04Z"/>
    <path class="cls-38" d="M160.18,426.81s34.34,21.59,68.86,1.56c0,0-5.32,29.74-26.24,39.31-20.92,9.57-42.62-40.87-42.62-40.87Z"/>
    <path class="cls-31" d="M182.71,324.16l-18.46-12.08,27.34,45.98-8.88-33.9Z"/>
    <path class="cls-40" d="M229.44,233.79s9.77,51.39-7.69,81.35c-11.38,19.54-27.02,20.09-57.51-3.06-27.96-21.22-33.66-33.91-33.66-33.91l6.83-53.42s80.83-37.3,92.03,9.04Z"/>
    <path class="cls-27" d="M190.1,352.37s34.57,8.54,40.14,12.47,12.73,38.33,22.77,54.26c10.04,15.93,23.75,41.1,6.13,70.21-17.61,29.11-16.03,56.96-16.03,56.96l13.33,73.07H107.98c-6.21.57-9.51-15.16-9.32-21.39.61-20.54,2.56-26.67,1.24-59.24-1.78-44.15-18.27-169.39-18.27-169.39l48.95-18.18c-1.51,68.91,38.53,53.87,72.21,116.55,27.57-52.96-12.69-115.32-12.69-115.32Z"/>
    <path class="cls-38" d="M113.86,405s7.26,15.14,1.53,30.61c-6.45,17.39-13.55,59.77,17.89,62.44,38.54,3.27,22.36,10.26,4.91,15.62-17.45,5.35-10.2,4.92-9.08,23.26.79,13.06-34.31,39.57-31.08,29.45,17.35-54.29-41.6-121.38,15.83-161.38Z"/>
    <path class="cls-19" d="M197.47,300.38l18.5,3.08c-.07.16-.15.34-.26.55-.33.67-.85,1.56-1.57,2.45-1.43,1.76-3.65,3.46-6.87,3.38-5.05-.58-7.47-3.1-8.67-5.45-.6-1.19-.9-2.34-1.04-3.2-.05-.31-.08-.59-.1-.81Z"/>
    <path class="cls-43" d="M225.68,277.53c2.07-.1,3.63-2.66,3.48-5.71-.15-3.05-1.95-5.45-4.02-5.35-2.07.1-3.63,2.66-3.48,5.71.15,3.05,1.95,5.45,4.02,5.35Z"/>
    <path class="cls-43" d="M195.09,279.47c2.07-.1,3.63-2.66,3.48-5.71-.15-3.05-1.95-5.45-4.02-5.35-2.07.1-3.63,2.66-3.48,5.71.15,3.05,1.95,5.45,4.02,5.35Z"/>
    <path class="cls-43" d="M232.19,258.87l-15.56,1.02c-.27,0-.52-.11-.72-.29-.2-.18-.32-.42-.35-.69.03-.48.16-.94.38-1.37.22-.42.52-.8.89-1.11.37-.31.79-.53,1.25-.67.46-.14.94-.18,1.41-.12l12.86,1.42c1.02-.05,1.11,1.74-.17,1.8Z"/>
    <path class="cls-43" d="M179.4,260.48l20.74.26c-.05-.63-.23-1.24-.54-1.8-.3-.56-.72-1.04-1.22-1.43-.5-.39-1.08-.66-1.69-.81-.61-.15-1.25-.17-1.88-.06l-15.74,2.56c-.51.02-.45,1.3.32,1.26Z"/>
    <path class="cls-6" d="M212.62,271.08l6.65,14.73-4.64,4.24"/>
    <path class="cls-38" d="M210.35,241.76c-10.87.08-15.95-2.44-27.35,2.92-3.6,1.69-7,3.39-9.06,7.53-2.21,8.34-.79,19.93-15.5,19.61,0,0,4.76-15.83-5.35-17.85-17.16-3.44-14.4,24.32-3.77,31.1,7.22,4.6-5.19,37.8-14.42,50-31.57-73.79-20.62-81.22-12.41-100.48,13.95-32.73,26.17-42.69,59.19-48.11,0,0,43.75,1.18,55.35,39.67,9.92,32.9-4.97,45.52-4.97,45.52,0,0,.46-24.49-1.96-26.99-3.19-3.3-5.77-3.01-19.76-2.92Z"/>
    <path class="cls-40" d="M741.22,640.04l-123.81,21.99,24.37,98h79.3s37.7-81.03,20.13-120Z"/>
    <path class="cls-31" d="M662.18,648.63s19.08,5.88,26.96,36.99c7.88,31.12-.72,74.42-.72,74.42h12.27s43.75-51.38,11.56-116.85l-50.07,5.44Z"/>
    <path class="cls-38" d="M920.99,609.16s9.54,71.24-4.7,105.2c-12.12,28.88-30.84,45.26-53.57,45.68h-174.3s-.28-93.1-73.79-109.01c0,0,241.96-67.39,306.37-41.87Z"/>
    <path class="cls-41" d="M924.34,630.77l-158.15,5.21,1.68-11.05,30.82-3.56h125.43l.22,9.4Z"/>
    <path class="cls-38" d="M801.6,351.7c-1.36,5.77-1.71-14.64-4.46-13.79-12.59,3.9-48.41,15.08-56.03,18.27-9.28,3.88-9.9,19.41-10.52,30.42-.43,7.71,11.04,115.91,11.61,189.22.12,15.66-15.73,33.99-17.6,42.7-.52,2.34-.8,4.74-.83,7.14,0,1.67.65,3.28,1.82,4.47,1.18,1.19,2.78,1.87,4.45,1.88l188.86,1.76s8.37,1.22,6.35-8.34c-2-10.45-3.09-21.06-3.28-31.69-1.88-76.14-2.24-203.65-3.06-209.69-1.24-9.06,8.49-16.86-2.05-21.42l-58.49-23.37s-10.72,7.82-12.27,8.61c-29.38,15.02-44.49,3.82-44.49,3.82Z"/>
    <path class="cls-11" d="M813.77,359.47s-6.68,24.53-3.59,48.22c3.08,23.69-9.09,56.11-11.61,82.12s9.82,60.09,7.89,81.93c-1.92,21.84,5.08,62.09,5.08,62.09"/>
    <path class="cls-40" d="M284.4,621.89l123.81,22-24.37,98h-79.3s-37.7-81.03-20.13-120Z"/>
    <path class="cls-31" d="M363.45,630.47s-19.08,5.88-26.96,37c-7.88,31.12.72,74.42.72,74.42h-12.27s-43.75-51.38-11.56-116.85l50.07,5.44Z"/>
    <path class="cls-38" d="M100.97,595.61s-21.94,41.18-19.33,95.49c2.48,51.57,30.7,68.94,75.3,68.94l180.27-18.16s.27-93.1,73.79-109.01c0,0-81.85-59.58-164.65-44.61-40.64,7.35-66.17,16.29-145.39,7.35Z"/>
    <path class="cls-27" d="M97.88,581.85s116.76,12.2,159.79-19.96l-1.92,26.84s-72.76,40.42-156.15,17.68c0,0-12.5-8.78-1.72-24.56Z"/>
    <path class="cls-40" d="M454.18,540.63s34.68-7.26,49.05-3.93c14.64,3.02,45.45,10.73,39.93,33.32-3.82,16.13-20.65,9.74-20.65,9.74,0,0,4.38,6.44-2.13,9.38-3.97,1.65-29.6-12.4-29.6-12.4-17.1,5.5-39.42-6.11-39.42-6.11l2.83-29.98Z"/>
    <path class="cls-7" d="M503.53,571.15l18.69,8.61"/>
    <path class="cls-7" d="M507.71,556.46c4.68.92,25.75,10.86,25.75,10.86"/>
    <path class="cls-7" d="M510.33,545.32c9.39,2.35,18.36,6.09,26.64,11.11"/>
    <path class="cls-30" d="M299.98,428.37h376.43l190.5,313.51H144.34l155.64-313.51Z"/>
    <path class="cls-45" d="M606.42,562.05l12.62,76.41,70.09,47.17,117.34-12.68-28.82-34.49-171.22-76.41Z"/>
    <path class="cls-39" d="M538.98,486.19l52.54,96.87,78.24,74.22-63.33-95.24-67.44-75.85Z"/>
    <path class="cls-29" d="M538.98,486.19l52.54,96.87-5.07,3.9-51.75-98.16,4.28-2.62Z"/>
    <path class="cls-29" d="M591.52,583.07l78.24,74.22v4.75l-83.3-75.08,5.07-3.9Z"/>
    <path class="cls-29" d="M669.76,662.04l107.89-19.72v-3.87l-107.89,18.84v4.75Z"/>
    <path class="cls-20" d="M777.65,638.45l-70.28-89.96-100.94,13.55,63.33,95.24,107.89-18.84Z"/>
    <path class="cls-27" d="M134.45,411.5l-16.29,93.68c-.41,2.34-1.7,4.44-3.61,5.86-1.91,1.42-4.29,2.05-6.65,1.77,0,0-45.91-3.02-61.2-4.29-3.6-.3-13.38-9.17-10.39-23.79,2.74-19.97,15.58-66.59,23.71-92.47,3.78-12.88,44.23-5.17,44.23-5.17l30.21,24.41Z"/>
    <path class="cls-27" d="M96.33,443.56c21.29,0,38.55-17.26,38.55-38.55s-17.26-38.55-38.55-38.55-38.55,17.26-38.55,38.55,17.26,38.55,38.55,38.55Z"/>
    <path class="cls-40" d="M47.75,513.73l.63-7.47,57.16,6.51-.88,6.36-4.86,40.08-55.58-5.99,3.54-39.48Z"/>
    <path class="cls-31" d="M48.65,506.19l56.88,6.57-.88,6.36c-12.93-1.43-41.9-3.86-56.9-5.4l.91-7.53Z"/>
    <path class="cls-40" d="M71.78,582.67c15.45,0,27.98-12.53,27.98-27.98s-12.53-27.98-27.98-27.98-27.99,12.53-27.99,27.98,12.53,27.98,27.99,27.98Z"/>
    <path class="cls-40" d="M85.59,578.78l157.93-74.14s9.47-33.68-.83-28.09c-10.56,5.72-178.81,51.2-178.81,51.2l21.71,51.03Z"/>
    <path class="cls-33" d="M333.87,508.35l-67.15,11.73c-4.33.76-7.2-2.25-6.42-6.71l20.65-118.36c.78-4.46,4.92-8.69,9.24-9.45l67.15-11.73c4.33-.76,7.2,2.25,6.42,6.71l-20.65,118.36c-.78,4.46-4.91,8.69-9.24,9.45Z"/>
    <path class="cls-24" d="M336.88,507.83l-67.15,11.73c-4.33.76-7.2-2.25-6.42-6.71l20.65-118.36c.78-4.46,4.92-8.69,9.24-9.45l67.15-11.73c4.33-.76,7.2,2.25,6.42,6.71l-20.65,118.36c-.78,4.46-4.92,8.69-9.24,9.45Z"/>
    <path class="cls-40" d="M233.17,479.84l7.8,25.41s32.3-7.74,39.21-11.14c13.47-6.93,27.96-16.27,29.66-19.82,5.2-8.98,5.81-20.1,5.21-27.86-.07-1.15-.43-2.27-1.04-3.25-.61-.98-1.45-1.8-2.45-2.38-1-.58-2.13-.91-3.28-.95-1.16-.04-2.3.2-3.34.7l-28.27,14.11s-3.68-6.22.02-11.16c2.39-3.26-1.29-9.48-2.93-11.39-.64-.88-4.09-.91-4.87-.02-1.32,1.68.49,7.52-2.28,11.23-4.73,5.93-.53,8.51-12.7,18.62-9.63,7.93-20.82,17.65-20.72,17.89Z"/>
    <path class="cls-16" d="M287.85,458.96c8.04-2.71,24.45-12.26,24.45-12.26"/>
    <path class="cls-16" d="M286.79,469.69c6.47-2.36,23.57-11.62,23.57-11.62"/>
    <path class="cls-16" d="M290.69,479.25c4.27-1.46,16.96-7.49,16.96-7.49"/>
    <path class="cls-27" d="M46.79,503.21c-1.38,5.57-1.25,11.4.38,16.89,0,0,27.5,13.32,56.55,6.63,1.96-1.67,3.39-3.88,4.13-6.35.74-2.47.75-5.1.03-7.57l-61.1-9.61Z"/>
    <path class="cls-41" d="M865.93,403.59s-8.47,46.35-3.21,91.68c3.29,28.36,21.38,57.48,21.15,71.02-.37,21.92-25.43,31.21-25.5,43.9-.05,7.51,20.24,2.84,29.21-.08,20.15-6.56,33.39,2.35,33.39,2.35l-5.37-192.31-49.67-16.56Z"/>
    <path class="cls-38" d="M919.77,392.32c-18.59-23.27-26.93-12.12-33.46-11.56,0,0-22.12,4.12-20.38,22.83,1.84,19.79,34.38,151.7,34.38,151.7l68.31-5.13-3.24-18.19-6.67-37.46-7.11-40.05-.63-4.77-7.99-52.7s-13.58,7.76-23.21-4.66Z"/>
    <path class="cls-38" d="M924.36,432.48c18.16-11.15,23.85-34.91,12.7-53.07-11.15-18.16-34.91-23.85-53.07-12.69-18.17,11.15-23.85,34.91-12.7,53.07,11.15,18.16,34.91,23.85,53.07,12.7Z"/>
    <path class="cls-28" d="M760.87,560.76l-43.07,3.2-10.18,24.01,3.48,29.64s7.41-3.02,8.18-13.51,35.05-3.05,44.02-14.56"/>
    <path class="cls-38" d="M925.15,521.92l-167.09,31.5c-1.01.23-1.89.83-2.48,1.67-.59.84-.85,1.88-.73,2.9l4.04,31.8c.21,1.52.98,2.91,2.16,3.89,1.18.99,2.68,1.5,4.21,1.44l172.12-6.73-12.23-66.46Z"/>
    <path class="cls-38" d="M935.03,588.64c18.88,0,34.19-15.31,34.19-34.19s-15.31-34.19-34.19-34.19-34.19,15.31-34.19,34.19,15.31,34.19,34.19,34.19Z"/>
    <path class="cls-38" d="M762.13,398.98c5.58-27.54-7.54-26.83-11.91-31.21,0,0-16.38-13.51-28.86-.92-13.21,13.32-88.95,116.78-88.95,116.78l47.39,43.58,8.91-10.63,23.07-27.52,24.68-29.41,3.07-3.35,33.29-37.71s-13.84-5.12-10.69-19.62Z"/>
    <path class="cls-38" d="M781.95,403.68c6.39-19.07-3.89-39.71-22.96-46.1s-39.71,3.89-46.1,22.96c-6.39,19.07,3.9,39.71,22.97,46.1s39.71-3.89,46.1-22.97Z"/>
    <path class="cls-41" d="M736.46,459.66c-1.42-15.31-6.49-38.24-6.49-38.24,0,0-4.39-.41-17.91,29.82-10.02,22.65-21.64,45.74-23.56,65.27l23.07-27.52,24.9-29.34Z"/>
    <path class="cls-28" d="M643.93,349.52c-2.47-23.29,3.87-24.42,3.96-37.05.04-12.34,18.68-35.19,9.79-34.72-8.89.46-15.13,8.95-15.13,8.95-1.32-11.07.91-29.49-10.42-36.44-11.33-6.95-14-3.59-23.22-.82-24.63,7.56-10.88,40.15-10.63,50.48.22,6.5,11.65,30.81,12.17,35.3l3.64,17.29,29.83-2.98Z"/>
    <path class="cls-21" d="M629.89,282.79l-3.37-33.43,3.37,33.43Z"/>
    <path class="cls-5" d="M629.89,282.79l-3.37-33.43"/>
    <path class="cls-21" d="M618.37,283.16l-5.48-32.12,5.48,32.12Z"/>
    <path class="cls-5" d="M618.37,283.16l-5.48-32.12"/>
    <path class="cls-21" d="M604.84,283.24l-2.77-19.22,2.77,19.22Z"/>
    <path class="cls-5" d="M604.84,283.24l-2.77-19.22"/>
    <path class="cls-21" d="M623.51,308.31c4.02-9.41,14.46-18.46,14.46-18.46l-14.46,18.46Z"/>
    <path class="cls-5" d="M623.51,308.31c4.02-9.41,14.46-18.46,14.46-18.46"/>
    <path class="cls-38" d="M687.07,492.92l-36.9-140.43c-.28-.93-.89-1.73-1.72-2.24-.83-.51-1.82-.69-2.77-.52l-29.72,5.66c-1.42.29-2.68,1.09-3.54,2.26-.86,1.17-1.26,2.61-1.11,4.05l13.86,146.61,61.89-15.39Z"/>
    <path class="cls-27" d="M613.76,361.49s-3.66-14.02,0-15.56c3.66-1.54,26.59-5.92,29.66-3.06,3.08,2.86,5.76,14.8,5.76,14.8l-35.43,3.81Z"/>
    <path class="cls-38" d="M657.01,536.39c17.82,0,32.27-14.45,32.27-32.27s-14.45-32.27-32.27-32.27-32.27,14.45-32.27,32.27,14.45,32.27,32.27,32.27Z"/>
    <path class="cls-3" d="M131.22,347.86s23.52,45.55,47.54,53.04c0,0,13.5-7.17,11.35-48.53"/>
    <path class="cls-27" d="M177.91,412.64c4.52,0,8.19-3.67,8.19-8.19s-3.67-8.19-8.19-8.19-8.19,3.67-8.19,8.19,3.67,8.19,8.19,8.19Z"/>
    <path class="cls-27" d="M166.89,397.15c1.56,0,2.83-1.27,2.83-2.83s-1.27-2.83-2.83-2.83-2.83,1.27-2.83,2.83,1.27,2.83,2.83,2.83Z"/>
    <path class="cls-27" d="M186.1,395.4c1.56,0,2.83-1.27,2.83-2.83s-1.27-2.83-2.83-2.83-2.83,1.27-2.83,2.83,1.27,2.83,2.83,2.83Z"/>
    <path class="cls-39" d="M413.57,535.82l-92.31.52v88.69l137.39-8.01-45.08-81.2Z"/>
    <path class="cls-2" d="M404.84,544.47l15.26,31.36"/>
    <path class="cls-8" d="M389.96,544.47l5.72,11.75"/>
    <path class="cls-34" d="M327.49,544.47l45.65-1.06,3.35,11.17-48.1,1.64-.91-11.75Z"/>
    <path class="cls-34" d="M328.77,562.64l26.8-.72,3.36,11.17-29.25,1.31-.91-11.75Z"/>
    <path class="cls-34" d="M328.77,582.42l45.65-1.06,3.36,11.17-48.1,1.64-.91-11.75Z"/>
    <path class="cls-34" d="M330.05,600.59l26.8-.72,3.35,11.17-29.25,1.31-.91-11.75Z"/>
    <path class="cls-27" d="M251.49,685.62l101.79-63.74,72.17,20.53-86.98,76.45-86.98-33.24Z"/>
    <path class="cls-39" d="M813.54,355.82s34.1-11.43,40.51-26.54c0,0,15.57,2.24,21.68,8.09,6.08,5.85,20.92,7.6,8.06,14.1s-63.01,12.02-66.06,11.17c-3.05-.85-4.19-6.82-4.19-6.82Z"/>
    <path class="cls-39" d="M799.41,335.02v7.65s3.05,10.99,14.13,13.16c0,0,1.73,6.06-4.37,6.78-6.09.72-23.81-8.24-26.42-9.11-2.62-.86-3.77-4.48,1.31-7.37,0,0,1.82-9.91,15.35-11.1Z"/>
    <path class="cls-39" d="M830.47,442.22s-.1,0-.14-.01c-.17-.04-.32-.14-.41-.29-.09-.15-.13-.33-.09-.5,1.86-8.12-3.34-18.15-8.36-27.85-3.73-7.2-7.59-14.65-8.57-21.37-2.31-15.6,4-33.12,4.07-33.29.06-.16.18-.29.34-.37.16-.07.33-.08.5-.03.08.03.15.07.22.13.06.06.11.13.15.2.04.08.06.16.06.25s-.01.17-.04.25c-.06.17-6.27,17.39-4.02,32.66.97,6.5,4.77,13.84,8.46,20.95,5.12,9.91,10.44,20.17,8.47,28.76-.03.14-.11.27-.23.36-.12.09-.26.14-.41.14Z"/>
    <path class="cls-39" d="M806.26,434.79c-.15,0-.29-.05-.41-.14-.11-.09-.19-.22-.22-.36-4.1-17.19.29-46.67,1.73-55.3,1.2-6.52,1.62-13.16,1.26-19.79-.02-.17.04-.34.15-.47.11-.13.26-.22.44-.23.17-.02.34.03.47.14.14.11.22.26.24.43.38,6.74-.05,13.49-1.27,20.13-1.44,8.58-5.8,37.83-1.75,54.79.02.1.03.2,0,.3-.02.1-.06.19-.12.27-.06.07-.14.13-.23.17-.1.04-.19.06-.29.06h0Z"/>
    <g class="cls-42">
      <path class="cls-36" d="M829.78,446.92c2.28,0,4.13-1.84,4.13-4.12s-1.85-4.12-4.13-4.12-4.14,1.85-4.14,4.12,1.85,4.12,4.14,4.12Z"/>
    </g>
    <g class="cls-42">
      <path class="cls-36" d="M807,438.27c2.29,0,4.14-1.84,4.14-4.12s-1.85-4.12-4.14-4.12-4.13,1.85-4.13,4.12,1.85,4.12,4.13,4.12Z"/>
    </g>
    <path class="cls-4" d="M558.69,80.61h6"/>
    <path class="cls-26" d="M668.52,49.21h-345.65c-10.1,0-18.29,8.19-18.29,18.29v222.74c0,10.1,8.19,18.29,18.29,18.29h345.65c10.1,0,18.29-8.19,18.29-18.29V67.5c0-10.1-8.19-18.29-18.29-18.29Z"/>
    <path class="cls-39" d="M656.42,242.86h-192.02c-3.18,0-5.75,2.58-5.75,5.75v25.97c0,3.18,2.58,5.75,5.75,5.75h192.02c3.18,0,5.75-2.58,5.75-5.75v-25.97c0-3.18-2.58-5.75-5.75-5.75Z"/>
    <path class="cls-38" d="M596.95,259.03v-1.49h3.38v13h-1.65v-11.51h-1.73ZM603.11,260.81c.08-1.1.51-1.97,1.28-2.59.77-.62,1.76-.93,2.98-.93.82,0,1.52.15,2.1.45.6.29,1.05.68,1.35,1.19.31.5.47,1.07.47,1.71,0,.74-.22,1.39-.65,1.92-.42.54-.97.89-1.65,1.04v.09c.78.19,1.4.57,1.85,1.13.46.56.68,1.3.68,2.21,0,.68-.16,1.3-.47,1.85-.31.54-.78.97-1.4,1.28-.62.31-1.37.47-2.25.47-1.27,0-2.31-.33-3.13-.99-.82-.67-1.27-1.62-1.37-2.84h1.58c.08.72.38,1.31.88,1.76.5.45,1.17.68,2.01.68s1.48-.22,1.91-.65c.44-.44.66-1.01.66-1.71,0-.9-.3-1.55-.9-1.94-.6-.4-1.51-.59-2.72-.59h-.41v-1.37h.43c1.1-.01,1.94-.19,2.5-.54.56-.36.84-.91.84-1.65,0-.63-.21-1.14-.63-1.53-.41-.38-.99-.58-1.76-.58s-1.34.19-1.8.58c-.46.38-.73.9-.81,1.55h-1.6ZM613.54,269.22c1.52-1.22,2.71-2.22,3.58-3,.86-.79,1.59-1.61,2.18-2.46.6-.86.9-1.71.9-2.54,0-.78-.19-1.39-.58-1.83-.37-.46-.98-.68-1.82-.68s-1.45.26-1.91.77c-.44.5-.68,1.18-.72,2.03h-1.58c.05-1.34.46-2.38,1.22-3.11.77-.73,1.76-1.1,2.97-1.1s2.21.34,2.93,1.02c.73.68,1.1,1.62,1.1,2.82,0,.99-.3,1.97-.9,2.91-.59.94-1.26,1.76-2.01,2.48-.75.71-1.72,1.54-2.9,2.48h6.19v1.37h-8.65v-1.17Z"/>
    <path class="cls-27" d="M431.75,76.68h-100.63c-3.77,0-6.83,3.06-6.83,6.83v189.99c0,3.77,3.06,6.83,6.83,6.83h100.63c3.77,0,6.83-3.06,6.83-6.83V83.51c0-3.77-3.06-6.83-6.83-6.83Z"/>
    <path class="cls-37" d="M381.44,211.93c15.92,0,28.82-12.9,28.82-28.82s-12.9-28.82-28.82-28.82-28.82,12.9-28.82,28.82,12.9,28.82,28.82,28.82Z"/>
    <path class="cls-39" d="M372.52,175.17v18.29c0,.51.13,1.01.38,1.45.25.44.61.81,1.05,1.07.44.26.93.4,1.44.41.51,0,1.01-.11,1.45-.36l16.72-9.15c.46-.25.84-.62,1.11-1.07.27-.45.41-.97.41-1.49s-.14-1.04-.41-1.49c-.27-.45-.65-.82-1.11-1.07l-16.72-9.15c-.45-.24-.95-.37-1.45-.36-.51,0-1,.15-1.44.41-.44.26-.8.63-1.05,1.07-.25.44-.38.94-.38,1.45Z"/>
    <path class="cls-15" d="M463.82,101.14h71.89"/>
    <path class="cls-13" d="M463.82,134.69h148.56"/>
    <path class="cls-15" d="M464.7,179.16h71.89"/>
    <path class="cls-13" d="M464.7,212.7h148.56"/>
    <path class="cls-25" d="M490.76,255.19c-1.12-1.04-2.6-1.62-4.13-1.62s-3.01.58-4.13,1.62l-1.56,1.44-1.56-1.44c-1.12-1.04-2.6-1.62-4.13-1.62s-3.01.58-4.13,1.62c-.59.54-1.07,1.19-1.39,1.93-.32.73-.49,1.52-.49,2.33s.17,1.59.49,2.33c.33.73.8,1.39,1.39,1.93l9.82,9.1,9.82-8.98c.62-.53,1.12-1.2,1.46-1.94s.52-1.55.52-2.37-.18-1.63-.52-2.37c-.34-.74-.84-1.41-1.46-1.94Z"/>
    <path class="cls-38" d="M501.72,260.81c.08-1.1.51-1.97,1.28-2.59.77-.62,1.76-.93,2.99-.93.82,0,1.52.15,2.1.45.6.29,1.05.68,1.35,1.19.31.5.47,1.07.47,1.71,0,.74-.22,1.39-.65,1.92-.42.54-.97.89-1.66,1.04v.09c.78.19,1.4.57,1.85,1.13.46.56.68,1.3.68,2.21,0,.68-.16,1.3-.47,1.85-.31.54-.78.97-1.4,1.28-.62.31-1.37.47-2.25.47-1.27,0-2.31-.33-3.13-.99-.82-.67-1.27-1.62-1.37-2.84h1.58c.08.72.38,1.31.88,1.76.5.45,1.17.68,2.01.68s1.47-.22,1.91-.65c.44-.44.67-1.01.67-1.71,0-.9-.3-1.55-.9-1.94-.6-.4-1.5-.59-2.72-.59h-.41v-1.37h.43c1.1-.01,1.94-.19,2.5-.54.56-.36.85-.91.85-1.65,0-.63-.21-1.14-.63-1.53-.41-.38-.99-.58-1.76-.58s-1.34.19-1.8.58c-.45.38-.72.9-.81,1.55h-1.6ZM514.31,268.27l-2.01,4.84h-1.1l1.31-4.84h1.8ZM524.21,258.96h-6.31v4.1c.27-.38.68-.7,1.22-.94.54-.25,1.12-.38,1.74-.38.99,0,1.8.21,2.43.63.62.41,1.07.94,1.33,1.6.28.65.41,1.34.41,2.07,0,.86-.16,1.64-.49,2.32-.32.68-.82,1.22-1.49,1.62-.66.4-1.48.59-2.46.59-1.26,0-2.28-.32-3.06-.97-.78-.65-1.25-1.51-1.42-2.59h1.6c.16.68.48,1.22.99,1.6.5.38,1.14.58,1.91.58.95,0,1.66-.28,2.14-.85.48-.58.72-1.33.72-2.27s-.24-1.65-.72-2.16c-.48-.52-1.19-.77-2.12-.77-.64,0-1.19.16-1.67.47-.47.3-.81.71-1.02,1.24h-1.55v-7.34h7.82v1.44ZM527.01,269.22c1.52-1.22,2.71-2.22,3.58-3,.86-.79,1.59-1.61,2.18-2.46.6-.86.9-1.71.9-2.54,0-.78-.19-1.39-.58-1.83-.37-.46-.98-.68-1.82-.68s-1.45.26-1.91.77c-.44.5-.68,1.18-.72,2.03h-1.58c.05-1.34.46-2.38,1.22-3.11.77-.73,1.76-1.1,2.97-1.1s2.21.34,2.93,1.02c.73.68,1.1,1.62,1.1,2.82,0,.99-.3,1.97-.9,2.91-.59.94-1.26,1.76-2.01,2.48-.75.71-1.72,1.54-2.89,2.48h6.19v1.37h-8.65v-1.17ZM545.56,258.81l-5,11.73h-1.65l5.07-11.56h-6.94v-1.4h8.52v1.24Z"/>
    <path class="cls-27" d="M589.62,261.62c0-5.52-6.54-9.99-14.6-9.99s-14.6,4.47-14.6,9.99,6.54,9.99,14.6,9.99c.58,0,1.14-.03,1.7-.08.09,0,.17,0,.25.04.08.03.15.08.21.14,1.04,1.09,3.31,2.76,7.62,3.03.11,0,.21-.01.31-.07.1-.05.17-.13.23-.22.05-.09.08-.2.08-.31,0-.11-.03-.21-.09-.3-.75-1.12-1.34-2.35-1.74-3.64-.03-.13-.02-.27.03-.39.05-.12.15-.22.27-.28,3.48-1.82,5.72-4.69,5.72-7.92Z"/>
    <path class="cls-32" d="M276.02,0h-126.79c-9.67,0-17.5,7.84-17.5,17.5v174.85c0,9.67,7.83,17.5,17.5,17.5h126.79c9.66,0,17.5-7.84,17.5-17.5V17.5c0-9.67-7.84-17.5-17.5-17.5Z"/>
    <path class="cls-39" d="M204.39,129.2l-6.64,15.58h-2.2l6.74-15.36h-9.22v-1.86h11.32v1.65ZM209.95,135.79c-.89-.35-1.58-.86-2.05-1.53-.48-.67-.72-1.48-.72-2.44,0-.86.21-1.63.65-2.32.43-.7,1.07-1.25,1.91-1.65.86-.41,1.9-.62,3.11-.62s2.24.21,3.08.62c.86.4,1.5.95,1.93,1.65.45.68.67,1.46.67,2.32,0,.92-.25,1.74-.74,2.44-.49.68-1.17,1.19-2.03,1.53.99.3,1.77.84,2.34,1.6.59.75.88,1.66.88,2.72s-.26,1.94-.76,2.72c-.51.76-1.23,1.36-2.17,1.79-.92.41-1.99.62-3.2.62s-2.28-.21-3.2-.62c-.91-.43-1.62-1.03-2.13-1.79-.51-.78-.76-1.69-.76-2.72s.29-1.98.86-2.75c.57-.76,1.35-1.29,2.34-1.58ZM216.43,132.09c0-.97-.32-1.72-.96-2.25s-1.51-.79-2.63-.79-1.97.26-2.6.79-.96,1.28-.96,2.27c0,.89.33,1.61.98,2.15.67.54,1.53.81,2.58.81s1.93-.27,2.58-.81c.67-.56,1-1.28,1-2.17ZM212.84,136.74c-1.18,0-2.14.28-2.89.84-.75.54-1.12,1.36-1.12,2.46,0,1.02.36,1.84,1.07,2.46.73.62,1.71.93,2.94.93s2.2-.31,2.91-.93c.72-.62,1.08-1.44,1.08-2.46s-.37-1.88-1.1-2.44c-.73-.57-1.7-.86-2.89-.86ZM221.39,131.39c0-1.08.33-1.94.98-2.58.65-.65,1.49-.98,2.51-.98s1.85.33,2.51.98c.65.64.98,1.5.98,2.58s-.33,1.98-.98,2.63c-.65.64-1.49.96-2.51.96s-1.86-.32-2.51-.96c-.65-.65-.98-1.53-.98-2.63ZM235.35,128.1l-9.68,16.68h-2.15l9.68-16.68h2.15ZM224.88,129.17c-.54,0-.97.19-1.29.57-.3.37-.45.92-.45,1.65s.15,1.29.45,1.67c.32.38.75.57,1.29.57s.97-.19,1.29-.57c.32-.4.48-.96.48-1.67s-.16-1.28-.48-1.65c-.32-.38-.75-.57-1.29-.57ZM230.54,141.48c0-1.1.33-1.97.98-2.6.65-.65,1.49-.98,2.51-.98s1.85.33,2.48.98c.65.64.98,1.51.98,2.6s-.33,1.95-.98,2.6c-.64.65-1.46.98-2.48.98s-1.86-.32-2.51-.96c-.65-.65-.98-1.53-.98-2.63ZM234.01,139.25c-.54,0-.97.19-1.29.57-.32.37-.48.92-.48,1.65s.16,1.27.48,1.65c.32.37.75.55,1.29.55s.97-.18,1.29-.55c.32-.38.48-.93.48-1.65s-.16-1.28-.48-1.65c-.32-.38-.75-.57-1.29-.57Z"/>
    <path class="cls-14" d="M212.62,181.6c27.16,0,49.17-22.01,49.17-49.17s-22.01-49.17-49.17-49.17-49.17,22.01-49.17,49.17,22.01,49.17,49.17,49.17Z"/>
    <path class="cls-9" d="M261.79,132.43c-.02,13.03-5.2,25.52-14.42,34.73-9.22,9.21-21.72,14.38-34.75,14.38s-25.53-5.17-34.75-14.38c-9.22-9.21-14.41-21.7-14.42-34.73"/>
    <path class="cls-9" d="M212.62,83.26c6.46,0,12.85,1.27,18.82,3.74,5.97,2.47,11.39,6.09,15.95,10.66,4.57,4.57,8.19,9.99,10.66,15.95,2.47,5.96,3.74,12.36,3.74,18.82"/>
    <path class="cls-12" d="M152.33,70.5h32.68"/>
    <path class="cls-18" d="M155.15,47.69h67.54"/>
    <path class="cls-35" d="M866.91,741.88H144.34v18.16h722.57v-18.16Z"/>
    <circle class="cls-27" cx="150" cy="280.07" r="3"/>
  </g>
</svg>