<?xml version="1.0" encoding="UTF-8"?>
<svg id="Layer_2" data-name="Layer 2" xmlns="http://www.w3.org/2000/svg" xmlns:xlink="http://www.w3.org/1999/xlink" viewBox="0 0 1945.2 1080">
  <defs>
    <style>
      .cls-1 {
        fill: none;
      }

      .cls-2 {
        fill: url(#sket);
      }

      .cls-3 {
        fill: #33f5c4;
      }
    </style>
    <pattern id="sket" x="0" y="0" width="186.02" height="138.78" patternTransform="translate(-943.13 1872)" patternUnits="userSpaceOnUse" viewBox="0 0 186.02 138.78">
      <g>
        <rect class="cls-1" x="0" width="186.02" height="138.78"/>
        <g>
          <path class="cls-3" d="M147.06,13.73h0c1.51.78.96,3.06-.74,3.06h-40.11c-3.67,0-7.13-1.72-9.35-4.65h0c-2.58-3.38-3.85-7.82-3.85-13.29s1.38-10.31,4.16-14.27c2.77-3.95,6.61-6.95,11.51-9,4.9-2.03,10.45-3.06,16.65-3.06,10.04,0,18.07,2.35,24.06,7.04,5.42,4.24,8.55,10.01,9.42,17.33.15,1.3-.87,2.44-2.18,2.44h-10.47c-5.73,0-11.26-2.07-15.58-5.83l-.04-.04c-1.51-1.31-3.45-1.97-5.82-1.97-1.79,0-3.26.53-4.4,1.59-1.15,1.06-1.73,2.57-1.73,4.53,0,1.64.63,3.04,1.9,4.23,1.27,1.18,2.84,2.21,4.72,3.06,1.88.86,4.65,1.94,8.33,3.24,5.47,1.88,9.98,3.74,13.53,5.58Z"/>
          <path class="cls-3" d="M158.45,5.06l-.05-.03c-1.5-.77-.95-3.03.73-3.03h40.17c3.67,0,7.13,1.72,9.35,4.65h0c2.58,3.38,3.85,7.82,3.85,13.29,0,5.55-1.38,10.31-4.16,14.27-2.77,3.95-6.61,6.95-11.51,9-4.9,2.03-10.45,3.06-16.65,3.06-10.04,0-18.07-2.35-24.06-7.04-5.42-4.24-8.55-10.01-9.42-17.33-.15-1.3.87-2.44,2.18-2.44h10.47c5.73,0,11.26,2.07,15.58,5.83l.04.04c1.51,1.31,3.45,1.97,5.82,1.97,1.79,0,3.26-.53,4.4-1.59,1.15-1.06,1.73-2.57,1.73-4.53,0-1.64-.63-3.04-1.9-4.23-1.27-1.18-2.84-2.21-4.72-3.06-1.88-.86-4.65-1.94-8.33-3.24-5.47-1.88-9.98-3.74-13.53-5.58Z"/>
        </g>
        <g>
          <path class="cls-3" d="M-27.57,5.06l-.05-.03c-1.5-.77-.95-3.03.73-3.03H13.28c3.67,0,7.13,1.72,9.35,4.65h0c2.58,3.38,3.85,7.82,3.85,13.29,0,5.55-1.38,10.31-4.16,14.27-2.77,3.95-6.61,6.95-11.51,9-4.9,2.03-10.45,3.06-16.65,3.06-10.04,0-18.07-2.35-24.06-7.04-5.42-4.24-8.55-10.01-9.42-17.33-.15-1.3.87-2.44,2.18-2.44h10.47c5.73,0,11.26,2.07,15.58,5.83l.04.04c1.51,1.31,3.45,1.97,5.82,1.97,1.79,0,3.26-.53,4.4-1.59,1.15-1.06,1.73-2.57,1.73-4.53,0-1.64-.63-3.04-1.9-4.23-1.27-1.18-2.84-2.21-4.72-3.06-1.88-.86-4.65-1.94-8.33-3.24-5.47-1.88-9.98-3.74-13.53-5.58Z"/>
          <path class="cls-3" d="M38.95-13.73l-.05-.03c-1.5-.77-.95-3.03.73-3.03h40.17c3.67,0,7.13,1.72,9.35,4.65h0c2.58,3.38,3.85,7.82,3.85,13.29,0,5.55-1.38,10.31-4.16,14.27-2.77,3.95-6.61,6.95-11.51,9-4.9,2.03-10.45,3.06-16.65,3.06-10.04,0-18.07-2.35-24.06-7.04-5.42-4.24-8.55-10.01-9.42-17.33-.15-1.3.87-2.44,2.18-2.44h10.47c5.73,0,11.26,2.07,15.58,5.83l.04.04c1.51,1.31,3.45,1.97,5.82,1.97,1.79,0,3.26-.53,4.4-1.59,1.15-1.06,1.73-2.57,1.73-4.53,0-1.64-.63-3.04-1.9-4.23-1.27-1.18-2.84-2.21-4.72-3.06-1.88-.86-4.65-1.94-8.33-3.24-5.47-1.88-9.98-3.74-13.53-5.58Z"/>
        </g>
        <g>
          <g>
            <path class="cls-3" d="M54.06,83.12h0c1.51.78.96,3.06-.74,3.06H13.2c-3.67,0-7.13-1.72-9.35-4.65h0C1.28,78.14,0,73.71,0,68.24s1.38-10.31,4.16-14.27c2.77-3.95,6.61-6.95,11.51-9,4.9-2.03,10.45-3.06,16.65-3.06,10.04,0,18.07,2.35,24.06,7.04,5.42,4.24,8.55,10.01,9.42,17.33.15,1.3-.87,2.44-2.18,2.44h-10.47c-5.73,0-11.26-2.07-15.58-5.83l-.04-.04c-1.51-1.31-3.45-1.97-5.82-1.97-1.79,0-3.26.53-4.4,1.59-1.15,1.06-1.73,2.57-1.73,4.53,0,1.64.63,3.04,1.9,4.23,1.27,1.18,2.84,2.21,4.72,3.06,1.88.86,4.65,1.94,8.33,3.24,5.47,1.88,9.98,3.74,13.53,5.58Z"/>
            <path class="cls-3" d="M65.44,74.45l-.05-.03c-1.5-.77-.95-3.03.73-3.03h40.17c3.67,0,7.13,1.72,9.35,4.65h0c2.58,3.38,3.85,7.82,3.85,13.29,0,5.55-1.38,10.31-4.16,14.27-2.77,3.95-6.61,6.95-11.51,9-4.9,2.03-10.45,3.06-16.65,3.06-10.04,0-18.07-2.35-24.06-7.04-5.42-4.24-8.55-10.01-9.42-17.33-.15-1.3.87-2.44,2.18-2.44h10.47c5.73,0,11.26,2.07,15.58,5.83l.04.04c1.51,1.31,3.45,1.97,5.82,1.97,1.79,0,3.26-.53,4.4-1.59,1.15-1.06,1.73-2.57,1.73-4.53,0-1.64-.63-3.04-1.9-4.23-1.27-1.18-2.84-2.21-4.72-3.06-1.88-.86-4.65-1.94-8.33-3.24-5.47-1.88-9.98-3.74-13.53-5.58Z"/>
          </g>
          <g>
            <path class="cls-3" d="M120.58,64.33h0c1.51.78.96,3.06-.74,3.06h-40.11c-3.67,0-7.13-1.72-9.35-4.65h0c-2.58-3.38-3.85-7.82-3.85-13.29s1.38-10.31,4.16-14.27c2.77-3.95,6.61-6.95,11.51-9,4.9-2.03,10.45-3.06,16.65-3.06,10.04,0,18.07,2.35,24.06,7.04,5.42,4.24,8.55,10.01,9.42,17.33.15,1.3-.87,2.44-2.18,2.44h-10.47c-5.73,0-11.26-2.07-15.58-5.83l-.04-.04c-1.51-1.31-3.45-1.97-5.82-1.97-1.79,0-3.26.53-4.4,1.59-1.15,1.06-1.73,2.57-1.73,4.53,0,1.64.63,3.04,1.9,4.23,1.27,1.18,2.84,2.21,4.72,3.06,1.88.86,4.65,1.94,8.33,3.24,5.47,1.88,9.98,3.74,13.53,5.58Z"/>
            <path class="cls-3" d="M131.96,55.67l-.05-.03c-1.5-.77-.95-3.03.73-3.03h40.17c3.67,0,7.13,1.72,9.35,4.65h0c2.58,3.38,3.85,7.82,3.85,13.29,0,5.55-1.38,10.31-4.16,14.27-2.77,3.95-6.61,6.95-11.51,9-4.9,2.03-10.45,3.06-16.65,3.06-10.04,0-18.07-2.35-24.06-7.04-5.42-4.24-8.55-10.01-9.42-17.33-.15-1.3.87-2.44,2.18-2.44h10.47c5.73,0,11.26,2.07,15.58,5.83l.04.04c1.51,1.31,3.45,1.97,5.82,1.97,1.79,0,3.26-.53,4.4-1.59,1.15-1.06,1.73-2.57,1.73-4.53,0-1.64-.63-3.04-1.9-4.23-1.27-1.18-2.84-2.21-4.72-3.06-1.88-.86-4.65-1.94-8.33-3.24-5.47-1.88-9.98-3.74-13.53-5.58Z"/>
          </g>
        </g>
        <g>
          <path class="cls-3" d="M147.06,152.51h0c1.51.78.96,3.06-.74,3.06h-40.11c-3.67,0-7.13-1.72-9.35-4.65h0c-2.58-3.38-3.85-7.82-3.85-13.29s1.38-10.31,4.16-14.27c2.77-3.95,6.61-6.95,11.51-9,4.9-2.03,10.45-3.06,16.65-3.06,10.04,0,18.07,2.35,24.06,7.04,5.42,4.24,8.55,10.01,9.42,17.33.15,1.3-.87,2.44-2.18,2.44h-10.47c-5.73,0-11.26-2.07-15.58-5.83l-.04-.04c-1.51-1.31-3.45-1.97-5.82-1.97-1.79,0-3.26.53-4.4,1.59-1.15,1.06-1.73,2.57-1.73,4.53,0,1.64.63,3.04,1.9,4.23,1.27,1.18,2.84,2.21,4.72,3.06,1.88.86,4.65,1.94,8.33,3.24,5.47,1.88,9.98,3.74,13.53,5.58Z"/>
          <path class="cls-3" d="M213.59,133.73h0c1.51.78.96,3.06-.74,3.06h-40.11c-3.67,0-7.13-1.72-9.35-4.65h0c-2.58-3.38-3.85-7.82-3.85-13.29s1.38-10.31,4.16-14.27c2.77-3.95,6.61-6.95,11.51-9,4.9-2.03,10.45-3.06,16.65-3.06,10.04,0,18.07,2.35,24.06,7.04,5.42,4.24,8.55,10.01,9.42,17.33.15,1.3-.87,2.44-2.18,2.44h-10.47c-5.73,0-11.26-2.07-15.58-5.83l-.04-.04c-1.51-1.31-3.45-1.97-5.82-1.97-1.79,0-3.26.53-4.4,1.59-1.15,1.06-1.73,2.57-1.73,4.53,0,1.64.63,3.04,1.9,4.23,1.27,1.18,2.84,2.21,4.72,3.06,1.88.86,4.65,1.94,8.33,3.24,5.47,1.88,9.98,3.74,13.53,5.58Z"/>
        </g>
        <g>
          <path class="cls-3" d="M27.57,133.73h0c1.51.78.96,3.06-.74,3.06H-13.28c-3.67,0-7.13-1.72-9.35-4.65h0c-2.58-3.38-3.85-7.82-3.85-13.29s1.38-10.31,4.16-14.27c2.77-3.95,6.61-6.95,11.51-9,4.9-2.03,10.45-3.06,16.65-3.06,10.04,0,18.07,2.35,24.06,7.04,5.42,4.24,8.55,10.01,9.42,17.33.15,1.3-.87,2.44-2.18,2.44h-10.47c-5.73,0-11.26-2.07-15.58-5.83l-.04-.04c-1.51-1.31-3.45-1.97-5.82-1.97-1.79,0-3.26.53-4.4,1.59-1.15,1.06-1.73,2.57-1.73,4.53,0,1.64.63,3.04,1.9,4.23,1.27,1.18,2.84,2.21,4.72,3.06,1.88.86,4.65,1.94,8.33,3.24,5.47,1.88,9.98,3.74,13.53,5.58Z"/>
          <path class="cls-3" d="M38.95,125.06l-.05-.03c-1.5-.77-.95-3.03.73-3.03h40.17c3.67,0,7.13,1.72,9.35,4.65h0c2.58,3.38,3.85,7.82,3.85,13.29,0,5.55-1.38,10.31-4.16,14.27-2.77,3.95-6.61,6.95-11.51,9-4.9,2.03-10.45,3.06-16.65,3.06-10.04,0-18.07-2.35-24.06-7.04-5.42-4.24-8.55-10.01-9.42-17.33-.15-1.3.87-2.44,2.18-2.44h10.47c5.73,0,11.26,2.07,15.58,5.83l.04.04c1.51,1.31,3.45,1.97,5.82,1.97,1.79,0,3.26-.53,4.4-1.59,1.15-1.06,1.73-2.57,1.73-4.53,0-1.64-.63-3.04-1.9-4.23-1.27-1.18-2.84-2.21-4.72-3.06-1.88-.86-4.65-1.94-8.33-3.24-5.47-1.88-9.98-3.74-13.53-5.58Z"/>
        </g>
      </g>
    </pattern>
  </defs>
  <g id="Layer_1-2" data-name="Layer 1">
    <rect class="cls-2" width="1945.2" height="1080"/>
  </g>
</svg>