<?xml version="1.0" encoding="UTF-8"?>
<svg id="Layer_2" data-name="Layer 2" xmlns="http://www.w3.org/2000/svg" xmlns:xlink="http://www.w3.org/1999/xlink" viewBox="0 0 1064.21 695.04">
  <defs>
    <style>
      .cls-1, .cls-2, .cls-3, .cls-4 {
        fill-rule: evenodd;
      }

      .cls-1, .cls-5 {
        fill: #fcba9f;
      }

      .cls-6 {
        fill: #d4dcf4;
      }

      .cls-2, .cls-7 {
        fill: #fff;
      }

      .cls-8 {
        stroke-dasharray: 11.93 11.93;
      }

      .cls-8, .cls-9, .cls-10, .cls-11, .cls-12, .cls-13, .cls-14, .cls-15, .cls-16 {
        fill: none;
      }

      .cls-8, .cls-11, .cls-12, .cls-13 {
        stroke: #22fcc1;
      }

      .cls-8, .cls-11, .cls-12, .cls-13, .cls-14, .cls-15, .cls-16 {
        stroke-miterlimit: 10;
      }

      .cls-3, .cls-17 {
        fill: #ffccb3;
      }

      .cls-18 {
        fill: #93523e;
      }

      .cls-19 {
        fill: url(#linear-gradient-5);
      }

      .cls-20 {
        fill: url(#linear-gradient-4);
      }

      .cls-21 {
        fill: url(#linear-gradient-3);
      }

      .cls-22 {
        fill: url(#linear-gradient-2);
      }

      .cls-23, .cls-4 {
        fill: #22fcc1;
      }

      .cls-24 {
        fill: #bc775c;
      }

      .cls-25 {
        fill: #e56441;
      }

      .cls-26 {
        fill: url(#linear-gradient);
      }

      .cls-27 {
        fill: #2c937f;
      }

      .cls-28 {
        fill: #ff967c;
      }

      .cls-9 {
        stroke: #e56441;
        stroke-width: .95px;
      }

      .cls-9, .cls-10, .cls-11, .cls-12, .cls-14, .cls-15, .cls-16 {
        stroke-linecap: round;
      }

      .cls-29 {
        fill: #1f2d49;
      }

      .cls-10 {
        stroke: #93523e;
        stroke-linejoin: round;
        stroke-width: 1.21px;
      }

      .cls-11, .cls-16 {
        stroke-width: 16px;
      }

      .cls-12 {
        stroke-width: 10px;
      }

      .cls-13, .cls-14, .cls-15 {
        stroke-width: 16.52px;
      }

      .cls-30 {
        fill: #0d1b33;
      }

      .cls-14, .cls-15 {
        stroke: #fff;
      }

      .cls-31 {
        fill: #080b09;
      }

      .cls-32 {
        fill: #0a090a;
      }

      .cls-33 {
        fill: #f5f8ff;
      }

      .cls-15 {
        isolation: isolate;
        opacity: .7;
      }

      .cls-16 {
        stroke: #d4dcf4;
      }

      .cls-34 {
        fill: #96bafd;
      }
    </style>
    <linearGradient id="linear-gradient" x1="518" y1="52.81" x2="596.21" y2="1119.87" gradientTransform="translate(0 -54)" gradientUnits="userSpaceOnUse">
      <stop offset="0" stop-color="#fff"/>
      <stop offset="1" stop-color="#94b9ff"/>
    </linearGradient>
    <linearGradient id="linear-gradient-2" x1="676.26" y1="471.84" x2="780.59" y2="1016.03" xlink:href="#linear-gradient"/>
    <linearGradient id="linear-gradient-3" x1="275.93" y1="320.75" x2="277.34" y2="356.08" xlink:href="#linear-gradient"/>
    <linearGradient id="linear-gradient-4" x1="243.12" y1="329.6" x2="296.01" y2="668.64" xlink:href="#linear-gradient"/>
    <linearGradient id="linear-gradient-5" x1="307.09" y1="337.32" x2="322.57" y2="487.33" xlink:href="#linear-gradient"/>
  </defs>
  <g id="Layer_1-2" data-name="Layer 1">
    <path class="cls-26" d="M862.99,0H209.84c-23.91,0-43.29,19.38-43.29,43.29v413.53c0,23.91,19.38,43.29,43.29,43.29h653.15c23.91,0,43.29-19.38,43.29-43.29V43.29c0-23.91-19.38-43.29-43.29-43.29Z"/>
    <path class="cls-23" d="M216.06,0h641.77c12.99,0,25.45,5.16,34.63,14.34,9.19,9.18,14.35,21.64,14.35,34.63H167.08c0-12.99,5.16-25.45,14.34-34.63,9.18-9.18,21.64-14.34,34.63-14.34h.01Z"/>
    <path class="cls-8" d="M556.49,80.06h302.13c5.18,0,10.16,2.06,13.82,5.72,3.67,3.67,5.73,8.64,5.73,13.82v149.35c0,5.18-2.06,10.15-5.73,13.82-3.66,3.67-8.64,5.72-13.82,5.72h-302.13c-5.18,0-10.15-2.06-13.82-5.72-3.66-3.67-5.72-8.64-5.72-13.82V99.6c0-2.57.51-5.11,1.49-7.48.98-2.37,2.42-4.53,4.24-6.34,1.82-1.82,3.97-3.26,6.34-4.24,2.37-.98,4.91-1.49,7.48-1.49h-.01Z"/>
    <path class="cls-7" d="M777.52,296.12h-302.13c-10.79,0-19.54,8.75-19.54,19.54v149.35c0,10.79,8.75,19.54,19.54,19.54h302.13c10.79,0,19.54-8.75,19.54-19.54v-149.35c0-10.79-8.75-19.54-19.54-19.54h0Z"/>
    <path class="cls-7" d="M419.24,296.12h-211.12c-9.13,0-16.53,7.4-16.53,16.53v155.37c0,9.13,7.4,16.53,16.53,16.53h211.12c9.13,0,16.53-7.4,16.53-16.53v-155.37c0-9.13-7.4-16.53-16.53-16.53Z"/>
    <path class="cls-12" d="M483.65,433.16s22.65-2.39,36.26,7.81c18.26,13.67,32.97,24.22,52.38-9.38,21.27-36.81,24.61-49.67,40.12-49.82,19.91-.19,27.69,52.89,64.41,56.64,36.72,3.75,61.68-2.25,61.68-2.25"/>
    <path class="cls-11" d="M483.65,327.22h52.76"/>
    <path class="cls-16" d="M483.65,351.84h109.04"/>
    <path class="cls-7" d="M211.83,35.56c4.62,0,8.37-3.75,8.37-8.37s-3.75-8.37-8.37-8.37-8.37,3.75-8.37,8.37,3.75,8.37,8.37,8.37Z"/>
    <path class="cls-7" d="M240.2,35.56c4.62,0,8.37-3.75,8.37-8.37s-3.75-8.37-8.37-8.37-8.37,3.75-8.37,8.37,3.75,8.37,8.37,8.37Z"/>
    <path class="cls-7" d="M267.75,35.56c4.62,0,8.37-3.75,8.37-8.37s-3.75-8.37-8.37-8.37-8.37,3.75-8.37,8.37,3.75,8.37,8.37,8.37Z"/>
    <path class="cls-7" d="M708.04,208.14c18.7,0,33.86-15.16,33.86-33.86s-15.16-33.86-33.86-33.86-33.86,15.16-33.86,33.86,15.16,33.86,33.86,33.86Z"/>
    <path class="cls-7" d="M710.71,158.28c0-1.48-1.2-2.67-2.67-2.67s-2.67,1.2-2.67,2.67v34.15c0,1.48,1.2,2.67,2.67,2.67s2.67-1.2,2.67-2.67v-34.15Z"/>
    <path class="cls-7" d="M725.11,178.02c1.48,0,2.67-1.2,2.67-2.67s-1.2-2.67-2.67-2.67h-34.15c-1.48,0-2.67,1.2-2.67,2.67s1.2,2.67,2.67,2.67h34.15Z"/>
    <path class="cls-33" d="M532.1,695.04c293.88,0,532.11-6.09,532.11-13.59s-238.23-13.59-532.11-13.59S0,673.95,0,681.45s238.23,13.59,532.1,13.59Z"/>
    <path class="cls-23" d="M998.77,414.46h-372.31v263.01h372.31v-263.01Z"/>
    <path class="cls-22" d="M775.19,414.46h-148.73v263.01h148.73v-263.01Z"/>
    <path class="cls-23" d="M91.17,578.62l-15.28,98.12-5.82-.91c-1.96-.31-3.72-1.38-4.9-2.98s-1.66-3.61-1.35-5.57l12.97-83.32c.31-1.96,1.38-3.72,2.98-4.9s3.61-1.66,5.57-1.35l5.82.91h0Z"/>
    <path class="cls-24" d="M138.92,595.13l-23.89-7.15-7.6,33.28,26.14,8.21,5.35-34.34h0Z"/>
    <path class="cls-18" d="M122.48,625.99l-4.42-1.39,10.85-32.47,4.03,1.21-10.47,32.65h.01Z"/>
    <path class="cls-7" d="M118.06,588.46s-9.36,16.26-4.2,34.83l-32.16,52.57c-2.79,2.04-7.04.83-9.4-.42-.52-.28-.93-.71-1.19-1.24-.26-.52-.35-1.12-.26-1.7l13.87-89.07c.23-1.49,1.04-2.82,2.24-3.72,1.21-.9,2.72-1.29,4.21-1.09,5.96.81,15.04,2.12,18.61,3.03,5.52,1.42,8.43,3.42,8.28,6.8h0Z"/>
    <path class="cls-7" d="M107.45,634.45l-4.72-7.53c-.17-.28-.41-.5-.69-.66s-.6-.25-.92-.26c-.33-.01-.65.06-.94.2s-.54.36-.73.62c-.23.32-.36.71-.37,1.11-.01.4.1.79.32,1.12l5.89,9.15,2.17-3.74h-.01Z"/>
    <path class="cls-7" d="M102.1,642.52l-4.67-7.51c-.17-.28-.41-.5-.69-.67-.28-.16-.6-.25-.92-.26-.33-.01-.65.06-.94.2s-.54.36-.73.62c-.23.32-.36.71-.37,1.11-.01.4.1.79.31,1.12l5.77,9.06,2.25-3.68h0Z"/>
    <path class="cls-7" d="M96.55,651.59l-4.59-7.46c-.17-.28-.41-.5-.69-.67-.28-.16-.6-.25-.92-.26s-.65.06-.94.2-.54.36-.73.62c-.23.32-.36.71-.37,1.11-.01.4.1.79.32,1.12l5.74,8.91,2.19-3.58h0Z"/>
    <path class="cls-23" d="M353.81,664.1h99.3v5.89c0,.98-.19,1.96-.57,2.87s-.93,1.73-1.62,2.43c-.7.7-1.52,1.25-2.43,1.62-.91.38-1.88.57-2.87.57h-84.32c-1.99,0-3.89-.79-5.3-2.19s-2.19-3.31-2.19-5.3v-5.89Z"/>
    <path class="cls-24" d="M362.78,614.37l-3.39,24.7,34.06,2.38,4.09-27.09h-34.76Z"/>
    <path class="cls-18" d="M397.18,616.71l-.87,5.78-34.97,2.4,1.12-8.18h34.72Z"/>
    <path class="cls-7" d="M359.39,636.01s17.51,6.75,35.06-1.21l56.89,23.68c2.45,2.45,1.91,6.83,1.03,9.35-.2.55-.56,1.03-1.04,1.37-.48.34-1.05.52-1.64.51h-90.14c-1.5,0-2.95-.59-4.02-1.64s-1.69-2.48-1.72-3.99c-.12-6.02-.22-15.19.13-18.86.55-5.67,2.09-8.85,5.45-9.23v.02Z"/>
    <path class="cls-7" d="M406.47,639.42l-6.71,5.82c-.24.21-.43.48-.55.79-.12.3-.16.63-.12.95s.16.63.34.9c.19.27.43.48.72.63.35.18.76.25,1.15.2s.76-.22,1.06-.48l8.13-7.23-4.03-1.57h.01Z"/>
    <path class="cls-7" d="M415.27,643.47l-6.7,5.78c-.25.21-.43.48-.55.78-.12.3-.16.63-.12.95s.16.63.34.9c.19.27.43.48.73.63.35.18.76.25,1.15.2s.77-.22,1.06-.48l8.07-7.09-3.98-1.66h0Z"/>
    <path class="cls-7" d="M425.08,647.56l-6.66,5.68c-.24.21-.43.48-.55.78-.12.3-.16.63-.12.95s.16.63.34.9c.19.27.43.48.72.63.36.18.76.25,1.15.2s.76-.22,1.06-.48l7.92-7.04-3.87-1.61h0Z"/>
    <path class="cls-24" d="M304.29,290.6l20.58-40.52s-12.53,1.64-14.71-6.14c-2.18-7.78,59.21-14.73,59.21-14.73,0,0-4.91,17.19-12.28,19.24l-20.26,59.35-32.54-17.19h0Z"/>
    <path class="cls-18" d="M307.36,284.56l32.15,15.4-2.67,7.83-31.24-19.75,1.77-3.48h-.01Z"/>
    <path class="cls-32" d="M503.36,73.75l-295.92,48.44c-5.08.83-8.52,5.62-7.69,10.7l19.32,118.04c.83,5.08,5.62,8.52,10.7,7.69l295.92-48.44c5.08-.83,8.52-5.62,7.69-10.7l-19.32-118.04c-.83-5.08-5.62-8.52-10.7-7.69Z"/>
    <path class="cls-14" d="M352.14,147.76l120.26-19.69"/>
    <path class="cls-15" d="M360.68,184.27l78.45-12.84"/>
    <path class="cls-13" d="M280.25,228.3c23.49,0,42.53-19.04,42.53-42.53s-19.04-42.53-42.53-42.53-42.53,19.04-42.53,42.53,19.04,42.53,42.53,42.53Z"/>
    <path class="cls-14" d="M322.23,178.89c1.36,8.3.23,16.82-3.26,24.48-3.48,7.66-9.16,14.11-16.31,18.54-7.15,4.43-15.45,6.64-23.86,6.36-8.41-.29-16.54-3.06-23.37-7.97s-12.05-11.73-15.01-19.61c-2.95-7.88-3.5-16.45-1.58-24.64s6.23-15.63,12.38-21.37,13.86-9.53,22.16-10.89"/>
    <path class="cls-23" d="M294.11,504.27l12.27,138.93c0,29.78-30.39,33.17-40.11,29.66-13.72-4.95-146.62-38.78-146.62-38.78l14.08-43.14,102,14.18s-2.79-28.95-30.14-117.33l88.52,16.48h0Z"/>
    <path class="cls-27" d="M214.71,518.4l82.7,23.22-4.65-55.79-87.17,1.95,9.11,30.61h.01Z"/>
    <path class="cls-24" d="M292.91,199.87s16.38,18.59,21.25,26.12c4.87,7.52,5.04,22.28-5.14,26.05-10.18,3.76-18.51,4.39-33.37,1.62-11.57-2.16-26.56-21.25-22.13-30.98,4.43-9.74,25.01-27.44,39.4-22.8h0Z"/>
    <path class="cls-24" d="M296.01,251.88l-2.43,31.43-35.63-7.75,15.94-29.66,22.13,5.98h-.01Z"/>
    <path class="cls-18" d="M296.01,255.15h-9.69l8.29,14.8"/>
    <path class="cls-21" d="M253.96,273.57l5.31-5.15c.69-.67,1.54-1.15,2.46-1.41.93-.26,1.9-.27,2.84-.05l29.14,6.9c.7.17,1.35.51,1.88,1s.92,1.11,1.14,1.8l2.11,6.64-44.87-9.74h0Z"/>
    <path class="cls-23" d="M207.81,432.47l-5.22,25.27c-5.87,38.55,21.77,64.05,64,57.1,37.72-6.21,149.46-49.53,149.46-49.53l-4.45-68.57-93.94,15.5s-84.43-15.64-109.86,20.23h.01Z"/>
    <path class="cls-23" d="M418.6,456.7c16.78,0,30.39-13.6,30.39-30.39s-13.61-30.39-30.39-30.39-30.39,13.6-30.39,30.39,13.6,30.39,30.39,30.39Z"/>
    <path class="cls-23" d="M418.6,456.7c16.78,0,30.39-13.6,30.39-30.39s-13.61-30.39-30.39-30.39-30.39,13.6-30.39,30.39,13.6,30.39,30.39,30.39Z"/>
    <path class="cls-23" d="M276,674.46c16.78,0,30.39-13.6,30.39-30.39s-13.6-30.39-30.39-30.39-30.39,13.61-30.39,30.39,13.6,30.39,30.39,30.39Z"/>
    <path class="cls-23" d="M447.51,435.1l-42.72,181.62h-51.09l34.52-190.4,59.29,8.78Z"/>
    <path class="cls-27" d="M317.67,412.24l-112.51,35.02,2.65-14.79,109.86-20.23h0Z"/>
    <path class="cls-24" d="M342.92,309.65l11.18,8.13,37.33-61.27s-4.97-20.07-5.31-23.49l12.15-1.73s9.84-18.54,12.64-22.21c2.8-3.67,6.04-3.02,7.77,0,0,0,5.39.86,6.26,8.2,0,0,4.75,1.08,6.69,10.57,0,0,4.1,4.32,3.24,9.06-.86,4.75-11.65,23.35-13.38,25.26-1.33,1.56-2.55,3.21-3.67,4.94l-35.95,86.15s-8.79,18.84-29.37,11.7l-25.52-11.83c-11.72-7.59,15.96-43.48,15.96-43.48h-.02Z"/>
    <path class="cls-24" d="M361.73,367.19c11.87,0,21.49-9.62,21.49-21.49s-9.62-21.49-21.49-21.49-21.49,9.62-21.49,21.49,9.62,21.49,21.49,21.49Z"/>
    <path class="cls-31" d="M271.66,215.36s21.03-7.08,25.23-21.91c4.21-14.83-4.65-22.58-16.16-15.05,0,0-8.19-13.06-22.13-3.98-13.94,9.07-11.29,30.54-10.84,34.75,0,0-15.71,11.07-8.19,28.55,7.52,17.48,28.17,21.69,28.17,21.69,2.28-3.27,3.91-6.96,4.8-10.84,0,0-11.38-8.63-4.8-17.04,6.57-8.41,14.1,5.09,14.1,5.09,0,0,5.76-19.03-10.18-21.25h0Z"/>
    <path class="cls-20" d="M253.96,273.57s-14.6,7.26-17.9,15.07c-3.06,7.22-24.31,102.08-30.82,140.26-.16.91-.09,1.84.2,2.71s.79,1.66,1.45,2.3,1.47,1.1,2.36,1.34c.88.25,1.82.28,2.71.08l105.7-23.1s-5.17-55.55-3.36-71.86c1.81-16.3-15.48-57.07-15.48-57.07l-44.87-9.74h.01Z"/>
    <path class="cls-34" d="M313.94,348.07l-26.65-15.84,27.73,45.61-1.08-29.78h0Z"/>
    <path class="cls-18" d="M354.1,317.78l7.76,5.41,7.51-30.47-15.27,25.07h0Z"/>
    <path class="cls-19" d="M298.83,283.31s42.42,23.19,47.57,26.99c.67.49,1.14,1.21,1.32,2.02.19.81.08,1.66-.3,2.39l-19.48,37.4c-.22.42-.52.79-.89,1.09-.37.3-.79.52-1.25.65s-.93.17-1.4.1c-.47-.06-.92-.22-1.33-.46l-49.44-29.38s-2.63-39.11,25.2-40.81h0Z"/>
    <path class="cls-31" d="M293.42,227.76c1.02-.76.9-2.63-.26-4.18s-2.92-2.19-3.94-1.43-.9,2.63.26,4.18,2.92,2.19,3.94,1.44h0Z"/>
    <path class="cls-31" d="M307.36,217.21c1.02-.76.9-2.63-.26-4.18s-2.92-2.19-3.94-1.43-.9,2.63.26,4.18,2.92,2.19,3.94,1.43Z"/>
    <path class="cls-10" d="M301.71,220.1s-.24,4.59,2.57,3.38c2.64-1.25,4.9-.39,3.25,3.09"/>
    <path class="cls-7" d="M308.46,229.85c-1.6.87-4.79,2.6-6.9,3.8-.13.07-.23.17-.3.3-.07.13-.11.27-.11.42s.05.29.12.41c.08.12.19.22.32.29,2.95,1.28,9.28,3.13,7.95-4.61,0-.13-.04-.25-.1-.36-.07-.11-.16-.2-.27-.26s-.24-.09-.36-.09-.25.04-.36.11h0Z"/>
    <path class="cls-31" d="M281.43,223.17l.3.24c.4.39.94.61,1.5.6.56,0,1.09-.23,1.49-.63l6.57-7.02c.33-.33.53-.77.55-1.23.02-.47-.13-.92-.43-1.28-.17-.23-.39-.42-.64-.55-.25-.14-.53-.22-.81-.24-.29-.02-.57.02-.84.11-.27.1-.51.25-.72.45l-6.87,6.78c-.19.17-.35.38-.46.62-.11.23-.17.49-.18.75,0,.26.03.52.13.76.09.24.23.46.41.65h0Z"/>
    <path class="cls-31" d="M305.31,203.24l-9.04,3.39c-.27.1-.51.26-.71.47-.2.2-.35.45-.45.72s-.14.55-.12.84c.02.29.1.56.23.81.2.42.55.75.98.92.43.17.91.18,1.35.02l9.13-3.02c.53-.19.96-.58,1.2-1.09.24-.5.27-1.08.08-1.61l-.1-.37c-.09-.24-.24-.46-.42-.65s-.4-.33-.64-.43c-.24-.1-.5-.15-.76-.15s-.52.06-.76.16h.03Z"/>
    <path class="cls-5" d="M751.49,360.91s-28.64-25-51.93-3.76-119.49,167.14-119.49,167.14l29.1,20.12,109.13-122.73,19,30.58,14.19-91.35h0Z"/>
    <path class="cls-4" d="M732.01,640.06c12-8.77,24.36-17.8,37.38-20.72.29-.07.6-.07.89,0,.29.06.57.19.81.37s.44.41.58.67.23.56.24.86l1.43,24.16c.03.5-.12.99-.43,1.38-.3.39-.74.66-1.23.76l-89.2,17.63c-6.58,1.3-10.79-1.56-12.82-6.64-.07-.18-.08-.37-.04-.55.04-.18.13-.35.26-.48s.3-.22.48-.26c.18-.04.37-.03.55.04,11.72,4.3,24.65,3.85,36.04-1.26,8.23-3.67,16.54-9.74,25.04-15.95h.02Z"/>
    <path class="cls-3" d="M759.38,560.92s1.69,38.13,2.58,42.01c.61,2.12,1.38,4.19,2.3,6.2,1.53,3.64,3.23,7.7,3.39,10.66-12.38,3.3-24.18,11.92-35.64,20.29-8.5,6.21-16.81,12.28-25.04,15.95-10.84,4.86-23.1,5.52-34.4,1.84-1.55-6.59,2.95-13.89,14.31-17.17,20.36-5.89,31.48-9.62,38.58-26.65,5.04-12.1-3.4-54.22-3.4-54.22l37.32,1.11v-.02Z"/>
    <path class="cls-2" d="M726.35,607.59c4-.25,19.91-1.29,35.13-3.28,2.96-.39,5.6,5.17,4.34,8.71-.83,2.58-1.45,5.23-1.85,7.91-4.97,1.82-9.73,4.14-14.22,6.94.92-6.3-2.92-9.09-8.63-8.8-4.51.23-14.69,3.09-19.95,4.65-.29.08-.6.08-.88,0-.29-.08-.55-.25-.75-.48s-.33-.5-.37-.8,0-.6.12-.88l5.72-13.02c.12-.27.3-.49.54-.66s.52-.26.81-.28h-.01Z"/>
    <path class="cls-2" d="M684.24,660.1c10.36.81,16.63-1.88,16.63-1.88l-4.17-21.09-16.21,3.99,3.75,18.99h0Z"/>
    <path class="cls-4" d="M554.3,563.9c14.82,1.1,30.09,2.24,41.89,8.46.27.14.5.34.68.57.18.24.31.51.38.81.07.29.07.6,0,.89-.06.3-.19.57-.37.81l-14.58,19.32c-.3.4-.73.67-1.22.78-.49.1-1,.03-1.43-.22l-79.34-44.41c-5.85-3.27-7.21-8.19-5.45-13.37.06-.18.18-.33.33-.44s.33-.18.51-.2c.19-.02.37.02.54.11.17.09.3.22.39.39,6.13,10.87,16.27,18.92,28.25,22.41,8.64,2.54,18.91,3.31,29.4,4.09h.02Z"/>
    <path class="cls-1" d="M626.46,521.4l-25.27,33.65c-.91,2.01-1.67,4.09-2.27,6.21-1.2,3.77-2.54,7.96-4.33,10.31-11.56-5.52-26.13-6.6-40.28-7.66-10.49-.78-20.76-1.55-29.4-4.09-11.41-3.33-21.16-10.78-27.38-20.9,3.09-6.02,11.25-8.66,22.03-3.8,19.32,8.71,30.21,13.08,46.65,4.72,2.65-1.56,5.02-3.55,7.03-5.88l25.54-37.61,27.69,25.04h0Z"/>
    <path class="cls-2" d="M571.05,535.51c3.21,2.41,15.99,11.92,28.88,20.28,2.5,1.62.91,7.57-2.34,9.44-2.3,1.43-4.49,3.04-6.53,4.82-4.96-1.84-10.1-3.16-15.33-3.94,4.78-4.2,3.67-8.81-.86-12.29-3.58-2.75-13.19-7.17-18.2-9.4-.28-.12-.51-.32-.67-.57-.17-.25-.26-.54-.26-.84s.08-.6.24-.85c.16-.26.39-.46.66-.59l12.79-6.2c.26-.13.55-.18.84-.15.29.03.56.13.79.31v-.02Z"/>
    <path class="cls-2" d="M504.94,548.18c7.36,7.34,13.88,9.35,13.88,9.35l10.5-18.76-14.93-7.47-9.45,16.89h0Z"/>
    <path class="cls-17" d="M790.77,342.76l-75.52,13.42,14.86,59.78h48.37s22.99-49.42,12.28-73.19h.01Z"/>
    <path class="cls-17" d="M724.93,415.37c16.78,0,30.39-13.6,30.39-30.39s-13.6-30.39-30.39-30.39-30.39,13.61-30.39,30.39,13.6,30.39,30.39,30.39Z"/>
    <path class="cls-17" d="M694.92,389.77l30.41,190.39,35.07,1.46-4.09-188.2-61.38-3.65h0Z"/>
    <path class="cls-28" d="M742.55,348s11.64,3.58,16.44,22.57c4.8,18.98-.44,45.39-.44,45.39h7.48s26.68-31.34,7.05-71.27l-30.54,3.32h.01Z"/>
    <path class="cls-23" d="M815.98,185.19l-9.51,4.56c-3.65,1.75-6.86,4.28-9.41,7.41-2.55,3.14-4.38,6.79-5.36,10.72l-21.49,86.46-48.44,23.16,11.04,17.54,91.59-3.25-8.43-146.6h0Z"/>
    <path class="cls-27" d="M802.29,216.31s-16.68,23.43-8.61,45.75,4.78,26.46,2.76,46.23,4.57,15.17,4.57,15.17l23.4-11.04s9.76-93.53-22.12-96.12h0Z"/>
    <path class="cls-29" d="M900.42,323.93s9.25,45.26-2.87,64.17c-15.34,23.94-34.1,27.6-47.97,27.86h-91.02s-.17-56.79-45.01-66.49c0,0,147.58-41.1,186.87-25.54Z"/>
    <path class="cls-30" d="M902.46,337.11l-96.47,3.18,1.03-6.74,18.8-2.17h76.5l.14,5.74h0Z"/>
    <path class="cls-17" d="M777.7,315.9s-11.8,3.43-17.1,4.99-15.78,5.3-15.78,5.3l7.67,10.91,34.78-2.07-9.57-19.14h0Z"/>
    <path class="cls-23" d="M834.88,177.12s-19.8,7.84-22.83,10.26c-3.02,2.42-5.9,22.17-11.04,31.54-5.14,9.38-12.66,26.68-1.68,42.58,10.99,15.9,9.82,28.52,9.82,28.52l-2.34,39.87,91.64,2.79c.83.03,1.66-.12,2.43-.44s1.47-.8,2.04-1.4c.57-.61,1.01-1.33,1.28-2.12s.37-1.62.3-2.46c-1.05-11.63-2.82-28.99-3.2-47.51-.51-25.09-.89-108.92-.89-108.92l-41.25-1.29c-8.3,1.43-24.29,8.58-24.29,8.58h0Z"/>
    <path class="cls-23" d="M900.42,214.33c12.29,0,22.25-9.96,22.25-22.25s-9.96-22.25-22.25-22.25-22.25,9.96-22.25,22.25,9.96,22.25,22.25,22.25Z"/>
    <path class="cls-27" d="M903.42,317.06s-1.9,6.96-22.25,15.09c0,0-47.71-1.04-71.41-.54s2.54-5.75,15.77-12.35c13.23-6.6,76.39-24.92,76.39-24.92l1.5,22.72h0Z"/>
    <path class="cls-27" d="M884.19,204.1s-13.8,12.58-14.61,21.91c-.82,9.33-2.69,35.36-20.42,37.96-21.74,3.18-27.43,6.28-17.35,8.71,10.07,2.43,32.94-1.51,32.94,8.93,0,7.43,8.88,12.99,13.35,8.93,4.46-4.06,40.02-65.74,6.09-86.44h0Z"/>
    <path class="cls-23" d="M922.43,195.34c-1.87,8.93-19.67,103.01-19.67,103.01,0,0-2.34,14.07-16.09,17.55l-95.9,24.38-16.88-25.31,86.98-29.75,17.3-93.14s46.76-8.66,44.26,3.26Z"/>
    <path class="cls-17" d="M832.65,159.79l.91,30.87s-.24,5.33,6.22,4.61c6.47-.72,19.48-5.55,23.07-11.78s1.32-8.36,1.32-8.36l-19.73-38.46-11.79,23.12h0Z"/>
    <path class="cls-28" d="M832.65,163.38l8.08-9.58-7.39,29.47-.69-19.89h0Z"/>
    <path class="cls-31" d="M839.85,83.69c-.35-5.89.93-11.76,3.71-16.97,4.6-8.31,14.14-19.8,28.64-14.85,14.49,4.95,25.1,16.09,19.62,31.82s-20.7,20.77-28.46,19.09-23.51-19.09-23.51-19.09Z"/>
    <path class="cls-23" d="M835.18,85.88c.84-1.41,2.08-2.52,3.58-3.19,1.49-.67,3.15-.86,4.76-.55,5.74,1.06,11.77,5.59,16.91,11.02,5.13,5.43,4.96,9.38,2.63,11.78-2.33,2.41-27.88-19.06-27.88-19.06h0Z"/>
    <path class="cls-7" d="M708.04,243.39l36.77,101.88h73.94c0-3.11-1.24-6.09-3.44-8.29-2.2-2.2-5.18-3.44-8.29-3.44h-53.49l-31.75-90.15h-13.74Z"/>
    <path class="cls-6" d="M708.04,243.39h-99.2l38.36,101.88h97.61l-36.77-101.88h0Z"/>
    <path class="cls-7" d="M676.82,306.36c4.94,0,8.95-4.01,8.95-8.95s-4.01-8.95-8.95-8.95-8.95,4.01-8.95,8.95,4.01,8.95,8.95,8.95Z"/>
    <path class="cls-17" d="M792.5,121.83s3.06,29.55,17.44,43.01c9.38,8.77,17.98,6.53,30.8-11.03,11.75-16.1,12.78-23.93,12.78-23.93l-12.42-27.95s-50.05-7.12-48.59,19.91h0Z"/>
    <path class="cls-31" d="M797.58,116.04s7.07,11.26,20.03,11.44c2.72,2.22,5.95,3.71,9.4,4.31,3.46.61,7.01.32,10.31-.85,0,0-5.16-7.84,0-10.58,8.78-4.66,11.8,10.89,7.12,16.3-3.18,3.68.18,7.97,2.55,11.8,2.38,3.83,10.04,13.32,10.04,13.32,0,0-.73-5.48,2.74-9.49,3.47-4.01,14.71-45.12-6.18-60.24s-42.88-3.02-47,0c0,0-21.95,3.83-21.99,26.67-.03,19.52,13.86,24.16,13.86,24.16l-4.15-15.75s2.56.27,3.28-11.1h-.01Z"/>
    <path class="cls-25" d="M820.93,152.44s1.62,5.06-3.88,7.42c-3.72,1.22-6.31-2.42-6.31-2.42l10.19-5Z"/>
    <path class="cls-31" d="M801.67,145.01c1.14-.28,1.73-1.88,1.32-3.56-.42-1.69-1.68-2.82-2.82-2.54s-1.73,1.88-1.32,3.56c.42,1.69,1.68,2.82,2.83,2.54h-.01Z"/>
    <path class="cls-31" d="M818.63,141.08c1.14-.28,1.73-1.88,1.32-3.56-.42-1.69-1.68-2.82-2.83-2.54-1.14.28-1.73,1.88-1.32,3.56.41,1.69,1.68,2.82,2.83,2.54Z"/>
    <path class="cls-31" d="M795.09,135.92l8.63-1.98c.14-.05.27-.14.34-.27.08-.13.11-.28.08-.43-.1-.25-.24-.49-.43-.68-.19-.2-.41-.35-.66-.46s-.52-.16-.79-.16-.54.06-.79.16l-6.77,2.87c-.56.14-.32,1.13.39.95h0Z"/>
    <path class="cls-31" d="M824.07,128.2l-11.24,3.52c-.07-.35-.08-.71,0-1.07.07-.35.22-.68.43-.97s.48-.54.79-.72.65-.29,1.01-.33l8.98-1.17c.28-.07.45.63.03.74h0Z"/>
    <path class="cls-9" d="M807.72,139.38l-1.22,9.1,3.21,1.55"/>
  </g>
</svg>